<svg width="100" height="100" viewBox="0 0 100 100" fill="none" xmlns="http://www.w3.org/2000/svg">
<path d="M50.011 24.3613C35.8227 24.3613 24.3781 35.8083 24.3781 50C24.3781 64.1917 35.8227 75.6388 50.011 75.6388C64.1997 75.6388 75.6444 64.1917 75.6444 50C75.6444 35.8083 64.1997 24.3613 50.011 24.3613ZM50.011 66.6687C40.842 66.6687 33.3463 59.1933 33.3463 50C33.3463 40.8067 40.82 33.3315 50.011 33.3315C59.2023 33.3315 66.6761 40.8067 66.6761 50C66.6761 59.1933 59.18 66.6687 50.011 66.6687ZM82.6718 23.3125C82.6718 26.6373 79.9944 29.2927 76.6928 29.2927C73.3688 29.2927 70.714 26.615 70.714 23.3125C70.714 20.01 73.3911 17.3324 76.6928 17.3324C79.9944 17.3324 82.6718 20.01 82.6718 23.3125ZM99.6488 29.3819C99.2694 21.3712 97.4401 14.2754 91.5728 8.42911C85.7278 2.58284 78.6338 0.753098 70.6248 0.351444C62.3703 -0.117148 37.6297 -0.117148 29.3753 0.351444C21.3887 0.730785 14.2945 2.56053 8.42724 8.40681C2.55996 14.253 0.752927 21.3489 0.351366 29.3596C-0.117122 37.6157 -0.117122 62.362 0.351366 70.618C0.730621 78.6288 2.55996 85.7248 8.42724 91.5711C14.2945 97.4171 21.3664 99.2471 29.3753 99.6488C37.6297 100.117 62.3703 100.117 70.6248 99.6488C78.6338 99.2694 85.7278 97.4394 91.5728 91.5711C97.4178 85.7248 99.2471 78.6288 99.6488 70.618C100.117 62.362 100.117 37.638 99.6488 29.3819ZM88.9851 79.4768C87.2451 83.8504 83.8764 87.2198 79.4814 88.9824C72.9004 91.5934 57.284 90.9908 50.011 90.9908C42.7383 90.9908 27.0998 91.5711 20.541 88.9824C16.1684 87.2421 12.7998 83.8728 11.0374 79.4768C8.42724 72.8941 9.02958 57.2743 9.02958 50C9.02958 42.7257 8.44954 27.0836 11.0374 20.5233C12.7775 16.1497 16.1461 12.7803 20.541 11.0175C27.1221 8.40678 42.7383 9.00928 50.011 9.00928C57.284 9.00928 72.9224 8.42911 79.4814 11.0175C83.8541 12.758 87.2228 16.1274 88.9851 20.5233C91.5951 27.1059 90.9928 42.7257 90.9928 50C90.9928 57.2743 91.5951 72.9164 88.9851 79.4768Z" fill="#457B9D"/>
</svg>
